<?xml version="1.0" encoding="iso-8859-1"?>
<!-- Generator: Adobe Illustrator 19.0.0, SVG Export Plug-In . SVG Version: 6.00 Build 0)  -->
<svg version="1.1" id="Layer_1" xmlns="http://www.w3.org/2000/svg" xmlns:xlink="http://www.w3.org/1999/xlink" x="0px" y="0px"
	 viewBox="0 0 512 512" style="enable-background:new 0 0 512 512;" xml:space="preserve">
<g>
	<g>
		<path d="M456.348,66.783h-116.87V16.696c0-9.22-7.475-16.696-16.696-16.696H189.217c-9.22,0-16.696,7.475-16.696,16.696v50.087
			H55.652c-9.22,0-16.696,7.475-16.696,16.696v66.783c0,9.22,7.475,16.696,16.696,16.696h16.696v328.348
			c0,9.22,7.475,16.696,16.696,16.696h333.913c9.22,0,16.696-7.475,16.696-16.696V166.957h16.696c9.22,0,16.696-7.475,16.696-16.696
			V83.478C473.043,74.258,465.568,66.783,456.348,66.783z M205.913,33.391h100.174v33.391H205.913V33.391z M406.261,478.609H105.739
			V166.957h300.522V478.609z M439.652,133.565h-16.696H89.044H72.348v-33.391h116.87h133.565h116.87V133.565z"/>
	</g>
</g>
<g>
	<g>
		<path d="M155.826,200.348c-9.22,0-16.696,7.475-16.696,16.696v211.478c0,9.22,7.475,16.696,16.696,16.696
			s16.696-7.475,16.696-16.696V217.043C172.522,207.823,165.047,200.348,155.826,200.348z"/>
	</g>
</g>
<g>
	<g>
		<path d="M256,200.348c-9.22,0-16.696,7.475-16.696,16.696v211.478c0,9.22,7.475,16.696,16.696,16.696
			c9.22,0,16.696-7.475,16.696-16.696V217.043C272.696,207.823,265.22,200.348,256,200.348z"/>
	</g>
</g>
<g>
	<g>
		<path d="M356.174,200.348c-9.22,0-16.696,7.475-16.696,16.696v211.478c0,9.22,7.475,16.696,16.696,16.696
			c9.22,0,16.696-7.475,16.696-16.696V217.043C372.87,207.823,365.394,200.348,356.174,200.348z"/>
	</g>
</g>
</svg>
