<?xml version="1.0" standalone="no"?>
<!DOCTYPE svg PUBLIC "-//W3C//DTD SVG 20010904//EN"
 "http://www.w3.org/TR/2001/REC-SVG-20010904/DTD/svg10.dtd">
<svg version="1.0" xmlns="http://www.w3.org/2000/svg"
 width="384.000000pt" height="384.000000pt" viewBox="0 0 384.000000 384.000000"
 preserveAspectRatio="xMidYMid meet">

<g transform="translate(0.000000,384.000000) scale(0.100000,-0.100000)"
fill="#000000" stroke="none">
<path d="M1820 3195 c-8 -2 -49 -9 -90 -15 -246 -40 -501 -190 -665 -389 l-55
-68 -90 -12 c-428 -55 -776 -367 -883 -791 -32 -126 -31 -360 2 -484 80 -305
274 -548 546 -684 99 -50 217 -87 319 -101 49 -7 311 -11 712 -11 l634 0 0
108 c0 59 6 131 13 159 l14 52 -681 3 -681 3 -77 26 c-120 41 -204 94 -294
183 -90 90 -142 175 -182 294 -22 66 -26 96 -26 207 -1 148 17 224 82 350 48
92 181 228 275 280 125 69 203 88 359 89 l137 1 22 40 c191 345 555 511 919
419 141 -35 318 -144 400 -245 111 -137 159 -244 191 -431 12 -68 22 -124 23
-125 1 -1 49 5 106 13 203 30 357 -11 484 -126 26 -24 59 -41 91 -49 63 -16
180 -70 241 -112 27 -18 77 -61 111 -96 l63 -63 -6 43 c-11 76 -66 225 -109
299 -145 246 -383 400 -667 433 l-57 7 -17 52 c-26 81 -103 224 -166 307 -153
203 -398 359 -648 414 -68 15 -314 29 -350 20z"/>
<path d="M3083 1586 c-177 -43 -315 -185 -352 -364 -6 -29 -11 -100 -11 -157
0 -93 -2 -105 -17 -105 -10 0 -37 -9 -61 -20 -33 -15 -47 -29 -62 -62 -18 -40
-20 -68 -20 -398 0 -330 2 -358 20 -398 15 -33 29 -47 62 -62 41 -19 69 -20
558 -20 489 0 517 1 558 20 33 15 47 29 62 62 18 40 20 68 20 398 0 330 -2
358 -20 398 -15 33 -29 47 -62 62 -40 18 -68 20 -420 20 l-378 0 0 103 c0 86
4 110 24 152 69 147 234 188 362 90 31 -24 39 -25 168 -25 75 0 136 3 136 6 0
3 -15 34 -32 67 -100 188 -322 284 -535 233z"/>
</g>
</svg>
